<?xml version="1.0" encoding="utf-8"?>
<!-- Generator: Adobe Illustrator 28.2.0, SVG Export Plug-In . SVG Version: 6.00 Build 0)  -->
<svg version="1.1" id="Layer_1" xmlns="http://www.w3.org/2000/svg" xmlns:xlink="http://www.w3.org/1999/xlink" x="0px" y="0px"
	 viewBox="0 0 170 170" style="enable-background:new 0 0 170 170;" xml:space="preserve">
<style type="text/css">
	.st0{fill:#414042;}
	.st1{fill:#D1D3D4;}
	.st2{fill:#FFFFFF;}
	.st3{fill:none;stroke:#000000;stroke-width:15.3199;stroke-miterlimit:10;}
	.st4{fill:none;stroke:#000000;stroke-width:15.3199;stroke-linecap:square;stroke-miterlimit:10;}
	.st5{fill:none;stroke:#FFFFFF;stroke-width:15.3199;stroke-linecap:square;stroke-miterlimit:10;}
	.st6{fill:#58595B;}
	.st7{fill:url(#SVGID_1_);}
	.st8{fill:#DCAF27;}
	.st9{clip-path:url(#SVGID_00000044874257138602275050000006808592807208904604_);}
	.st10{clip-path:url(#SVGID_00000088106590432893587320000011731606702929312669_);}
	.st11{clip-path:url(#SVGID_00000160893687639271657750000001502642000760645823_);}
	.st12{clip-path:url(#SVGID_00000080168308344600202370000004523996967766422928_);}
	.st13{fill:#EF4123;}
	.st14{fill:none;stroke:#A7A9AC;stroke-width:0.9315;stroke-miterlimit:10;}
	.st15{fill:none;stroke:#FFFFFF;stroke-width:10;stroke-miterlimit:10;}
</style>
<g>
	<g>
		<g>
			<g>
				<polygon class="st2" points="41.5,139.4 41.5,154.6 87.4,154.6 87.4,170 26.1,170 26.1,124.1 72.5,124.1 72.5,70.9 45.8,96.9 
					26.1,96.9 26.1,94.6 87.9,34.4 87.9,139.4 				"/>
			</g>
			<g>
				<g>
					<polygon class="st2" points="165.7,125.4 165.7,170 103.3,170 103.3,48 118.7,63 118.7,154.6 150.3,154.6 150.3,110.3 					"/>
				</g>
			</g>
			<polygon class="st8" points="150.3,60.3 88.4,0 4.3,82 4.3,170 19.7,170 19.7,88.5 88.4,21.5 150.3,81.8 150.3,98.4 165.7,113.5 
				165.7,96.8 165.7,75.3 			"/>
		</g>
	</g>
	<rect x="135.8" y="140.4" class="st8" width="10.2" height="10.1"/>
	<rect x="123.1" y="140.4" class="st8" width="10.2" height="10.1"/>
	<rect x="135.8" y="127.7" class="st8" width="10.2" height="10.1"/>
	<rect x="123.1" y="127.7" class="st8" width="10.2" height="10.1"/>
</g>
</svg>
