<?xml version="1.0" encoding="utf-8"?>
<!-- Generator: Adobe Illustrator 28.2.0, SVG Export Plug-In . SVG Version: 6.00 Build 0)  -->
<svg version="1.1" id="Layer_1" xmlns="http://www.w3.org/2000/svg" xmlns:xlink="http://www.w3.org/1999/xlink" x="0px" y="0px"
	 viewBox="0 0 200 50" style="enable-background:new 0 0 200 50;" xml:space="preserve">
<style type="text/css">
	.st0{fill:#414042;}
	.st1{fill:#D1D3D4;}
	.st2{fill:#FFFFFF;}
	.st3{fill:none;stroke:#000000;stroke-width:15.3199;stroke-miterlimit:10;}
	.st4{fill:none;stroke:#000000;stroke-width:15.3199;stroke-linecap:square;stroke-miterlimit:10;}
	.st5{fill:none;stroke:#FFFFFF;stroke-width:15.3199;stroke-linecap:square;stroke-miterlimit:10;}
	.st6{fill:#58595B;}
	.st7{fill:url(#SVGID_1_);}
	.st8{fill:#DCAF27;}
	.st9{clip-path:url(#SVGID_00000094593733918129298560000012809744519308345526_);}
	.st10{clip-path:url(#SVGID_00000076573487965086503290000003723565751018348967_);}
	.st11{clip-path:url(#SVGID_00000181077221825209519480000016994397201754591105_);}
	.st12{clip-path:url(#SVGID_00000103950522054843746390000007956485479650632119_);}
	.st13{fill:#EF4123;}
	.st14{fill:none;stroke:#A7A9AC;stroke-width:0.9315;stroke-miterlimit:10;}
	.st15{fill:none;stroke:#FFFFFF;stroke-width:10;stroke-miterlimit:10;}
</style>
<g>
	<g>
		<g>
			<g>
				<polygon class="st0" points="10.2,39.4 10.2,43.4 22,43.4 22,47.3 6.2,47.3 6.2,35.5 18.2,35.5 18.2,21.7 11.3,28.5 6.2,28.5 
					6.2,27.9 22.2,12.3 22.2,39.4 				"/>
			</g>
			<g>
				<g>
					<polygon class="st0" points="42.3,35.8 42.3,47.3 26.2,47.3 26.2,15.8 30.1,19.7 30.1,43.4 38.3,43.4 38.3,31.9 					"/>
				</g>
			</g>
			<polygon class="st8" points="38.3,19 22.3,3.4 0.6,24.6 0.6,47.3 4.6,47.3 4.6,26.3 22.3,9 38.3,24.6 38.3,28.9 42.3,32.8 
				42.3,28.4 42.3,22.9 			"/>
		</g>
	</g>
	<rect x="34.5" y="39.7" class="st8" width="2.6" height="2.6"/>
	<rect x="31.3" y="39.7" class="st8" width="2.6" height="2.6"/>
	<rect x="34.5" y="36.4" class="st8" width="2.6" height="2.6"/>
	<rect x="31.3" y="36.4" class="st8" width="2.6" height="2.6"/>
</g>
<g>
	<path class="st8" d="M53.6,47.6c-4.7,0-7.8-2.6-7.8-7.3c0-4.6,3-7.4,7.8-7.4c1.9,0,4.1,0.4,5.6,1.2l-1.4,3.6
		c-1.4-0.8-2.7-1.1-4-1.1c-2.3,0-3.6,1.5-3.6,3.6c0,2.5,1.1,3.8,3.5,3.8c0.6,0,1.4-0.1,1.8-0.3v-1.4h-3.2V39h7.1v7.3
		C57.9,47.1,55.9,47.6,53.6,47.6z"/>
	<path class="st8" d="M75.8,47.2h-4.3l-0.9-2.6h-4.7L65,47.2h-4.3l4.8-13.9h5.6L75.8,47.2z M68.3,36.4l-1.6,4.9h3L68.3,36.4z"/>
	<path class="st8" d="M83.4,42.1v5.2h-4.3v-5.2l-4.9-8.8h4.6l2.5,5l2.4-5h4.6L83.4,42.1z"/>
	<path class="st8" d="M94.2,47.2h-4.4V33.3h6.3c3.9,0,5.9,1.8,5.9,4.6c0,1.8-0.9,3.3-2.7,4l3.5,5.4h-4.9L95.4,43l-1.2,0.1V47.2z
		 M95.6,40c1.3-0.1,1.9-0.6,1.9-1.8c0-1-0.6-1.5-2.2-1.5h-1.2V40L95.6,40z"/>
	<path class="st8" d="M106.3,35.7c-1.5,0-2.5-0.7-2.5-2.1c0-1.4,1-2.1,2.5-2.1c1.5,0,2.5,0.7,2.5,2.1
		C108.8,35.1,107.8,35.7,106.3,35.7z M104.2,47.2V37.1l4.3-0.5v10.7H104.2z"/>
	<path class="st8" d="M124.2,36.9L121.8,47H117l-2.5-10l0,10.3h-4l0.5-13.9h6.3l2.2,9.9l2.2-9.9h6.2l0.5,13.9h-4.1L124.2,36.9z"/>
	<path class="st8" d="M130.6,47.2V33.3h10.9v3.4h-6.6v1.8h5.2v3.4h-5.2v1.9h6.6v3.4H130.6z"/>
	<path class="st8" d="M153.4,33.3h4.1v14.1h-4.7l-5-8v7.9h-4.1V33.3h4.7l5,7.9V33.3z"/>
	<path class="st8" d="M164.5,39.2l4-5.9h4.9l-5,6.8l5.2,7.2h-5.2l-3.9-5.9h0v5.9h-4.4V33.3h4.4L164.5,39.2L164.5,39.2z"/>
	<path class="st8" d="M180.8,47.6c-3.7,0-6.5-1.6-6.5-5.8v-8.5h4.4v7.9c0,1.9,0.6,2.7,2.2,2.7c1.5,0,2.1-0.7,2.1-2.6v-8h4.4v8.1
		C187.3,45.7,184.7,47.6,180.8,47.6z"/>
	<path class="st8" d="M189.8,47.2V33.3h4.4v10.4h5.4v3.6H189.8z"/>
</g>
<g>
	<path class="st0" d="M46,30.3v-2.8l6.5-7.6h-6.4v-3.6h12v2.9l-6.5,7.5h6.5v3.6H46z"/>
	<path class="st0" d="M66.7,30.6c-3.7,0-6.5-1.6-6.5-5.9v-8.5h4.4v8c0,1.9,0.7,2.8,2.2,2.8c1.5,0,2.1-0.7,2.1-2.7v-8.1h4.4v8.2
		C73.2,28.7,70.5,30.6,66.7,30.6z"/>
</g>
</svg>
